<?xml version="1.0" encoding="UTF-8"?>
<svg id="Layer_1" data-name="Layer 1" xmlns="http://www.w3.org/2000/svg" viewBox="0 0 30.54 21.4">
  <defs>
    <style>
      .cls-1 {
        fill: #fff;
        stroke: #fff;
        stroke-miterlimit: 10;
        stroke-width: 2px;
      }
    </style>
  </defs>
  <path class="cls-1" d="M26.58,1v6.31c0,1.84-1.49,3.32-3.32,3.32s-3.32-1.49-3.32-3.32v-1.81c0-1.12-.41-2.14-1.08-2.93-.82-.96-2.05-1.57-3.42-1.57-1.87,0-3.47,1.14-4.15,2.75-.2.46-.32.96-.35,1.49,0,.09,0,.17,0,.26s0,.17,0,.26v8.47c-.22,1.62-1.61,2.86-3.29,2.86-1.83,0-3.32-1.49-3.32-3.32V1H1v12.94c0,3.57,2.9,6.47,6.47,6.47s6.47-2.9,6.47-6.47c0-.22-.01-.43-.03-.64v-3.56s.02,0,.03.01v-4.66c0-.74.6-1.34,1.34-1.34s1.34.6,1.34,1.34v2.38c0,.79.14,1.55.4,2.25.92,2.46,3.29,4.22,6.07,4.22,3.44,0,6.26-2.69,6.46-6.09h.01V1h-2.96Z"/>
</svg>